<?xml version="1.0" encoding="UTF-8"?>
<svg id="Layer_1" data-name="Layer 1" xmlns="http://www.w3.org/2000/svg" viewBox="0 0 72 72">
  <defs>
    <style>
      .cls-1 {
        fill: none;
      }

      .cls-2, .cls-3, .cls-4 {
        fill: #231f20;
      }

      .cls-3 {
        stroke-width: .25px;
      }

      .cls-3, .cls-4 {
        stroke: #231f20;
        stroke-miterlimit: 10;
      }
    </style>
  </defs>
  <path class="cls-3" d="M35.3,39.61c-2.49,2.05-5.5,4.75-7.26,4.56-3.02-.33-.5-4.46-.17-5.85.72-3.01.84-6.06,1.27-9.1l4.11.81c2.78.23,9.01-5.02,8.7-7.57-.06-.45-.21-.67-.57-.93-.94.56-2.73.57-2.47,2.01l.75.75c-3.02,3.93-7.87,6.52-11.39,1.53-.87-1.24-1.53-4.87-2.7-3.1-1.21,1.83-3.9,5.68-6.13,6.23-1.15.29-2.5-3.39-2.21-4.36-1.72-.11-1.05,2.3-.6,3.35.56,1.31,2.06,1.68,1.27,3,3.22-.75,5.92-3.1,7.55-5.88.96-.66,2.11,2.77,2.19,3.57.17,1.61-1.19,12.86-2.58,12.86-1.81-2.21-3.66-.29-5.05,1.26-1.98,2.21-2.67,4.16-2.28,7.2,3.16,1.44,6.57-2.28,7.5-5.07,1.27.07,1.68.88,3.15.8,1.59-.09,4.7-2.3,6.02-3.33.19-.15.52-.47.91-.83,0-.64,0-1.28,0-1.92h0ZM19.37,49.28c-.58-.43-.53-.56-.46-1.2.19-1.82,2.32-6.08,4.36-6.11,4.33-.06-1.91,7.14-3.9,7.32h0Z"/>
  <path class="cls-4" d="M21.04,35.98s7.43.38,9.8-1.06l2.37-1.45"/>
  <path class="cls-2" d="M54.2,44.93c.07-.09.15-.18.22-.28.51-.66,1.01-1.36,1.45-2.09-1.86.91-3.38.9-6.84.46.89-1.64-.24-3.81.13-5.09.21-.73,2.6-3.29,3.23-4.51,5.34-10.46-2.13-13.05-8.62-5.62-2.32,2.66-3.58,6.52-5.53,8.99-1.24,1.58-4.46,2.41-3.62,4.88.29.86,1.74.11,1.24,2.74-.39,2.07-3.96,4.34-2.17,6.89,2.87,4.09,10.25.26,12.8-2.86.72-.89,1.42-2.81,1.83-3.16,1.08-.94,4.2-.22,5.87-.35ZM45.94,37.57c1.22,1.06-5.61,3.99-6.38,3.99.1-4.04,2.98-4.36,6.38-3.99ZM35.14,50.1c-1.97-4.2,8.65-5.34,11.16-5.29.13,3.81-9.51,8.82-11.16,5.29ZM47.18,42.96l-9.01.84,9.09-3.96-.08,3.12ZM48.68,36.03c-1.53.95-3.94-1.51-4.75-1.51-.46,0-.78,1.02-1.58.73.74-3.18,4.44-9.69,8.08-9.86,4.3-.2-.44,9.82-1.74,10.63Z"/>
  <circle class="cls-1" cx="36" cy="34.75" r="28.83"/>
</svg>